<svg xmlns="http://www.w3.org/2000/svg" width="87" height="111" fill="none"><path fill="#403E4D" d="M43.511 110.952c18.537 0 33.565-2.2 33.565-4.914 0-2.715-15.027-4.915-33.564-4.915-18.538 0-33.565 2.2-33.565 4.915 0 2.714 15.027 4.914 33.564 4.914Z"/><path fill="#55545D" d="M80.336 32.283C78.2 24.04 74.788 17.21 70.19 11.991 63.513 4.44 54.54.59 43.513.59 32.492.59 23.519 4.439 16.84 11.998 12.244 17.21 8.832 24.046 6.695 32.29 3.64 44.053 1.02 70.705 1.546 76.76c.508 5.537 2.144 8.828 4.617 9.278 2.016.368 3.107-.913 4.077-2.042l.21-.253.24-.273.216.285c3 3.894 8.529 6.779 16.443 8.58a77.358 77.358 0 0 0 16.138 1.807 77.358 77.358 0 0 0 16.145-1.807c7.908-1.801 13.444-4.686 16.437-8.58l.221-.285.235.273c.07.082.146.164.216.253.964 1.129 2.06 2.41 4.077 2.042 2.473-.45 4.11-3.741 4.61-9.277.577-6.056-2.035-32.708-5.092-44.478Z"/><path fill="#5C5D65" d="M30.034 16.893c3.559-1.068 5.86-3.879 5.14-6.277-.72-2.398-4.189-3.476-7.748-2.408-3.558 1.068-5.86 3.879-5.14 6.277.72 2.398 4.189 3.477 7.748 2.408Z"/><path fill="#4C4855" d="M6.188 86.04c1.649.298 2.682-.501 3.532-1.427a1.053 1.053 0 0 0 .21-1.23c-1.77-2.733-2.537-7.058-2.252-12.88.07-1.439.241-2.871.514-4.286-.793 3.887-2.156 17.172-4.579 17.92a3.995 3.995 0 0 0 2.575 1.903Z"/><path fill="#4C4855" d="M78.694 69.367c0 .102.247 6.652-2.594 9.702-2.84 3.05-11.306 10.723-32.587 10.723-21.282 0-29.728-7.647-32.582-10.723-2.853-3.075-2.6-9.6-2.6-9.702-.33 4.813-.101 10.742 2.385 14.103l.215.285c3 3.894 8.53 6.78 16.443 8.58a77.364 77.364 0 0 0 16.139 1.807 77.419 77.419 0 0 0 16.144-1.807c7.908-1.8 13.444-4.686 16.437-8.58l.222-.285c2.486-3.36 2.714-9.277 2.378-14.103Z"/><path fill="#4C4855" d="M80.842 86.04c-1.649.298-2.683-.501-3.532-1.427a1.052 1.052 0 0 1-.21-1.23c1.77-2.733 2.537-7.058 2.252-12.88a30.39 30.39 0 0 0-.52-4.286c.792 3.887 2.162 17.172 4.584 17.92a4.007 4.007 0 0 1-2.574 1.903Z"/><path fill="#34313A" d="M80.906 32.131c-2.162-8.332-5.618-15.219-10.273-20.52C63.836 3.906 54.717 0 43.512 0 32.313 0 23.188 3.906 16.397 11.61c-4.655 5.283-8.11 12.189-10.28 20.521C3.055 43.945.43 70.724.987 76.818c.375 4.115 1.56 9.157 5.073 9.803 2.334.419 3.653-1.097 4.61-2.22 3.133 3.856 8.694 6.723 16.551 8.505 1.801.412 3.564.729 5.232.976v.102c.027 1.575.176 3.146.444 4.698.225 1.595.61 3.163 1.147 4.68 0 0-.92.108-1.566.241-.647.133-2.346.381-2.816 1.23-.469.85.229 1.212 1.237 1.415a17.43 17.43 0 0 0 3.887.114 10.89 10.89 0 0 0 3.006-.634c.425-.248.444-.584.235-1.503a27.04 27.04 0 0 1-1.078-4.839 28.71 28.71 0 0 1-.153-4.965c3.21.298 5.708.336 6.716.336 1.04 0 3.513-.038 6.721-.336.09 1.656.04 3.317-.152 4.965a27.022 27.022 0 0 1-1.078 4.839c-.209.919-.196 1.268.235 1.503.965.352 1.975.565 3 .634 1.297.107 2.603.069 3.893-.114 1.008-.203 1.7-.565 1.268-1.415-.431-.849-2.175-1.109-2.815-1.23-.64-.12-1.567-.241-1.567-.241.532-1.516.91-3.082 1.13-4.673a31.65 31.65 0 0 0 .443-4.7v-.1a68.57 68.57 0 0 0 5.231-.977c7.857-1.782 13.419-4.648 16.551-8.504.958 1.123 2.277 2.638 4.61 2.22 3.532-.634 4.718-5.707 5.073-9.804.546-6.1-2.073-32.88-5.149-44.693Zm4.547 44.63c-.298 3.285-.996 5.783-2.03 7.362a4.008 4.008 0 0 1-2.58 1.902c-1.649.298-2.683-.5-3.532-1.427a1.052 1.052 0 0 1-.21-1.23c1.77-2.733 2.537-7.057 2.252-12.879a30.386 30.386 0 0 0-.52-4.286 33.514 33.514 0 0 0-.97-3.832.038.038 0 0 0-.053 0 .038.038 0 0 0-.011.027c.43 2.306.726 4.635.888 6.975.336 4.813.108 10.742-2.378 14.103l-.222.285c-2.993 3.894-8.53 6.78-16.437 8.58a77.42 77.42 0 0 1-16.145 1.807 77.36 77.36 0 0 1-16.138-1.807c-7.914-1.8-13.443-4.686-16.443-8.58l-.215-.285c-2.486-3.36-2.714-9.29-2.385-14.103.166-2.34.465-4.669.894-6.975a.038.038 0 0 0-.065-.027.038.038 0 0 0-.01.027 34.616 34.616 0 0 0-.965 3.805 30.435 30.435 0 0 0-.513 4.286c-.28 5.822.482 10.146 2.25 12.88a1.052 1.052 0 0 1-.208 1.23c-.85.925-1.903 1.724-3.532 1.426a3.996 3.996 0 0 1-2.581-1.902c-1.034-1.579-1.738-4.078-2.036-7.362-.539-6.056 2.08-32.708 5.13-44.478 2.144-8.243 5.555-15.073 10.146-20.292C23.518 4.44 32.491.59 43.512.59c11.02 0 20 3.836 26.677 11.414 4.598 5.213 8.01 12.048 10.146 20.292 3.057 11.757 5.67 38.409 5.118 44.465Z"/><path fill="#201F2B" d="M22.75 38.514a2.086 2.086 0 1 0 0-4.172 2.086 2.086 0 0 0 0 4.172ZM64.28 38.514a2.086 2.086 0 1 0 0-4.172 2.086 2.086 0 0 0 0 4.172Z"/><path fill="#4C4855" d="M22.386 41.926c1.508-.21 2.66-.887 2.574-1.512-.088-.624-1.381-.96-2.89-.749-1.509.211-2.661.888-2.574 1.512.087.625 1.38.96 2.89.75ZM67.544 41.174c.087-.625-1.066-1.302-2.575-1.512-1.508-.211-2.802.124-2.89.749-.086.624 1.066 1.3 2.575 1.511 1.509.211 2.802-.124 2.89-.748Z"/><path fill="#201F2B" d="M52.097 39.182a6.265 6.265 0 0 0-2.6-2.854 11.655 11.655 0 0 0-5.986-1.515 11.648 11.648 0 0 0-5.98 1.515 6.265 6.265 0 0 0-2.6 2.854c-.545 1.224.159 2.143 1.516 2.01a4.526 4.526 0 0 0 1.477-.5 11.072 11.072 0 0 1 5.587-1.377 11.084 11.084 0 0 1 5.593 1.376c.46.252.96.422 1.478.501 1.357.133 2.06-.786 1.515-2.01Z"/></svg>
